<svg id="Camada_1" data-name="Camada 1" xmlns="http://www.w3.org/2000/svg" viewBox="0 0 322 81.18"><defs><style>.cls-1{fill:#fab625;}.cls-2{fill:#fff;}.cls-3{fill:#d3d3d3;}</style></defs><path class="cls-1" d="M294.65,41.32c-1.73-1.86-3.33-3.51-4.85-5.24A3,3,0,0,0,287.22,35c-1.72.08-3.44.06-5.16,0-4.87-.14-7.26-2.6-7.26-7.42V10.87c0-4,2.36-6.71,6.42-6.77q13.41-.19,26.81,0c4.13.06,6.46,2.77,6.46,6.93V27.7c0,4.61-2.32,7.05-7,7.27a24.42,24.42,0,0,1-4.36,0,4.7,4.7,0,0,0-4.71,2.14C297.35,38.52,296.06,39.77,294.65,41.32ZM279.87,19.58c0-.23,0-.43-.27-.21l.31.17c0,.68.54,1,.91,1.46a18.71,18.71,0,0,0,20.75,5.05c3.54-1.39,6.64-3.41,8.52-6.91l.12-.1-.1.13a1.84,1.84,0,0,0-.35.15q-14.43,10-29.17.47A2.41,2.41,0,0,0,279.87,19.58Z"/><path class="cls-1" d="M162.59,32.76c-2-.44-3.64-.91-5.33-1.15-5.6-.81-9.3,2.37-9,7.82h10.81V47H148.13V77h-9.31c-.38-.58-.16-1.33-.16-2q0-17.59,0-35.18c0-11.12,6.72-17.06,17.83-15.8,6.15.7,6.15.7,6.12,6.84C162.58,31.44,162.59,32,162.59,32.76Z"/><path class="cls-2" d="M30.12,45.1h4.56l.8,2.87c5.07-2.84,10.09-4.88,15,.31a19.13,19.13,0,0,1,7-3c5.27-.82,9,1.88,9.17,7.23.23,5.62.05,11.25.05,17H60.6c0-4.21,0-8.44,0-12.66a31.72,31.72,0,0,0-.08-3.38c-.32-2.74-2.19-4-4.76-3.05s-4.56,1.92-4.33,5.65c.28,4.41.07,8.85.07,13.39-2.06.38-4,.07-5.88.2-.57-.7-.35-1.39-.35-2,0-4.51,0-9,0-13.52,0-3.46-2.24-4.82-5.49-3.51C37,51.7,36.12,53,36.12,56V69.53h-6Z"/><path class="cls-1" d="M201.47,69.6v7.5c-4.42-.2-8.85.62-13.17-.66-3.53-1-5.39-4.12-5.42-8.79-.06-8.35,0-16.7,0-25.05v-9h6.05c.73,0,1,.34,1.18,1,.34,1.55.77,3.08,1.2,4.74h8.47V47h-7.42v9.29c0,3-.05,6,0,8.95.09,2.81,1.55,4.24,4.35,4.38C198.24,69.66,199.76,69.6,201.47,69.6Z"/><path class="cls-2" d="M282.8,69.63c-1.8-5.44-3.59-10.82-5.52-16.63-1.06,3.1-2,5.82-2.91,8.54-.76,2.25-1.55,4.49-2.22,6.77-.3,1-.73,1.41-1.79,1.34-1.39-.08-2.78,0-4.35,0-1.91-7.82-3.8-15.62-5.74-23.57h6c1,5.23,2,10.41,3,16.15.73-2.1,1.29-3.69,1.82-5.3,1.05-3.13,2.13-6.25,3.1-9.41.33-1.11.74-1.6,2-1.58,3.59,0,3.59,0,4.79,3.32l4,11.19c.15.42.17.92.76,1.21.85-5.22,1.7-10.4,2.55-15.62h5.91a4.53,4.53,0,0,1-.38,2.48c-1.71,6.59-3.45,13.16-5.11,19.76-.25,1-.61,1.46-1.7,1.39C285.66,69.57,284.27,69.63,282.8,69.63Z"/><path class="cls-2" d="M93.59,69.5c-1.81.28-3.36.3-4.66-.91-.75-.7-1.48-.51-2.35-.13a14.8,14.8,0,0,1-10.66.39c-3.13-1-4.73-3.38-4.76-6.79a6.54,6.54,0,0,1,4.57-6.7c3.73-1.36,7.57-.9,11.4-.59.62-2.53,0-3.69-2.5-4.3a22.4,22.4,0,0,0-9.64.26,3,3,0,0,1-1.79.17V46.29c5.15-1.43,10.29-1.78,15.41-.06,3,1,4.87,3.08,4.94,6.27C93.68,58.12,93.59,63.73,93.59,69.5Zm-6.32-10a23.5,23.5,0,0,0-7.61-.18,2.6,2.6,0,0,0,.19,5.17,10.59,10.59,0,0,0,4.51-.32C87.5,63.25,87.6,63.12,87.27,59.55Z"/><path class="cls-1" d="M166.51,39.59h9.1v37.5c-2.82,0-5.64,0-8.46,0-1.15,0-.87-1-.88-1.64q0-8.25,0-16.51,0-8.55,0-17.1A4.31,4.31,0,0,1,166.51,39.59Z"/><path class="cls-2" d="M242.18,59.9c.14,2.67,1.27,4,3.79,4.59a16.39,16.39,0,0,0,5.13.34c1.71-.13,3.42-.36,5.2-.55.32,1.47,0,3,.17,4.62-4.9.88-9.67,1.34-14.34-.49A8.91,8.91,0,0,1,236.65,62a17.16,17.16,0,0,1-.25-7.87c1-5.07,3.74-7.53,8.88-8.05,9.2-.93,14,4.35,12.22,13.78H242.18Zm0-4.3H252c-.14-3.32-1.52-4.78-4.54-4.93S242.57,52.12,242.15,55.6Z"/><path class="cls-2" d="M6.26,68.33V63.39a28.54,28.54,0,0,0,9.14,1.52,8.56,8.56,0,0,0,2.35-.3,2.25,2.25,0,0,0,1.69-2.74c-.18-1.3-1.08-1.74-2.26-1.76-1.65,0-3.31,0-5,0C7.92,60,5.57,58,5.09,54.1c-.54-4.4,1.27-7.31,5.32-8.54,3.75-1.14,10.3-.75,14.08.84v4.89A46.48,46.48,0,0,0,18.58,50a15.78,15.78,0,0,0-5.73.2c-1.28.34-2.21,1-2.06,2.47s1.17,1.94,2.52,2a43.39,43.39,0,0,1,6.74.28,6.33,6.33,0,0,1,5.62,6c.44,3.79-1.05,6.68-4.23,7.93-3.51,1.38-7.17,1.1-10.79.66A12,12,0,0,1,6.26,68.33Z"/><path class="cls-2" d="M231.68,69.55h-6V61.4c0-2,0-4,0-6,0-3.78-1.73-5.16-5.43-4.43-3.14.62-4,1.71-4,4.89V69.51h-5.87V46.16c4.1-.64,4.14-.62,5.36,3a11.13,11.13,0,0,1,9.48-3c3.48.51,5.64,2.49,6.19,6,.62,3.88.18,7.8.28,11.7C231.72,65.66,231.68,67.51,231.68,69.55Z"/><path class="cls-2" d="M298.1,63.54A24.91,24.91,0,0,0,308,65a3.18,3.18,0,0,0,2.48-1A2.19,2.19,0,0,0,309,60.39c-1.63-.2-3.3-.1-5-.14-5.63-.15-8.48-4.26-6.68-9.62a6.41,6.41,0,0,1,4.87-4.22,23.67,23.67,0,0,1,13.48.7v4.83a26.92,26.92,0,0,0-8.59-1.4,9.73,9.73,0,0,0-2.93.4,2.12,2.12,0,0,0-1.66,2.36,2,2,0,0,0,2.11,2c1.72.12,3.44,0,5.16.09,5.52.16,8.39,4.22,6.75,9.51-1,3.28-3.67,4.39-6.68,4.76A27.66,27.66,0,0,1,299.62,69c-1.19-.31-1.67-.78-1.55-2C298.18,65.91,298.1,64.85,298.1,63.54Z"/><path class="cls-2" d="M115.77,41.21h4.43l1,3.8h5.38a19.36,19.36,0,0,1,.18,4.85c-1.55.51-3.16,0-4.81.37,0,4,0,7.93,0,11.88a2.41,2.41,0,0,0,2.52,2.52,5.37,5.37,0,0,1,2.22.23v4.76c-2.38-.07-4.8.3-7.19-.33a4.65,4.65,0,0,1-3.69-4.62C115.69,56.88,115.77,49.09,115.77,41.21Z"/><path class="cls-2" d="M99.74,45.19h4.57l.82,2.84c2-1.49,3.94-2.89,6.58-2.86.46,1.62.12,3.23.2,4.78a25.32,25.32,0,0,0-2.8.77c-2.66,1.06-3.38,2.19-3.38,5.05V69.53h-6Z"/><path class="cls-1" d="M166.35,33.6V26.06h9.22V33.6Z"/><path class="cls-2" d="M279.87,19.58a2.41,2.41,0,0,1,.72.21q14.75,9.57,29.17-.47a1.84,1.84,0,0,1,.35-.15l0,0c-1.88,3.5-5,5.52-8.52,6.91A18.71,18.71,0,0,1,280.82,21c-.37-.42-.92-.78-.91-1.46Z"/><path class="cls-3" d="M310.11,19.17l.1-.13-.12.1Z"/><path class="cls-3" d="M279.91,19.54l-.31-.17c.3-.22.3,0,.27.21Z"/></svg>